<?xml version="1.0" encoding="UTF-8"?>
<!DOCTYPE svg PUBLIC "-//W3C//DTD SVG 1.1//EN" "http://www.w3.org/Graphics/SVG/1.1/DTD/svg11.dtd">
<!-- Creator: CorelDRAW -->
<svg xmlns="http://www.w3.org/2000/svg" xml:space="preserve" width="2.4356mm" height="2.4767mm" version="1.1" style="shape-rendering:geometricPrecision; text-rendering:geometricPrecision; image-rendering:optimizeQuality; fill-rule:evenodd; clip-rule:evenodd"
viewBox="0 0 1.8 1.83"
 xmlns:xlink="http://www.w3.org/1999/xlink"
 xmlns:xodm="http://www.corel.com/coreldraw/odm/2003">
 <defs>
  <style type="text/css">
   <![CDATA[
    .fil1 {fill:#1A8C1A}
    .fil0 {fill:#FDFDFD}
   ]]>
  </style>
 </defs>
 <g id="Camada_x0020_1">
  <metadata id="CorelCorpID_0Corel-Layer"/>
  <g id="_2037640037792">
   <path class="fil0" d="M0.06 1.42l0.29 -0 0 0.12 -0.29 -0 0 -0.12zm-0 -0.18l0.29 -0 0 0.01 -0 0.11 -0.25 0 -0.04 -0 0 -0.12zm1.03 -0.09c0.1,-0.05 0.17,-0.01 0.31,-0.18 0.04,0.02 0.09,0.08 0.14,0.11 0.06,0.03 0.14,0.04 0.18,0.06 0,0.18 -0.09,0.39 -0.2,0.5 -0.01,0.01 -0.02,0.02 -0.03,0.03 -0.03,0.03 -0.05,0.05 -0.09,0.07 -0.17,-0.14 -0.32,-0.36 -0.31,-0.61zm-1.03 -0.09l0.29 -0 0 0.12 0.02 0 -0.25 0 -0.02 0 -0.04 -0 0 -0.12zm0.18 -0.24l0.81 0c0.15,0 0.12,0.11 0.12,0.24l-0.14 0.04c-0.01,0.13 0.03,0.29 0.08,0.39 0.02,0.04 0.17,0.28 -0.06,0.28l-0.82 0c-0.12,0 -0.12,-0.06 -0.11,-0.17 0.21,-0.02 0.29,0.04 0.29,-0.06 0,-0.69 0.07,-0.5 -0.29,-0.53l-0 -0.05c0,-0.1 0.03,-0.13 0.13,-0.13zm0.15 -0.33c0,-0.14 0.12,-0.25 0.25,-0.25 0.14,0 0.26,0.12 0.26,0.26l0 0.26 -0.52 0 0 -0.27zm-0.18 0.27c-0.01,-0.18 -0.02,-0.36 0.07,-0.5 0.06,-0.1 0.19,-0.2 0.37,-0.2 0.18,-0 0.31,0.1 0.37,0.21 0.08,0.13 0.08,0.33 0.07,0.5l-0.12 -0c-0,-0.14 0.02,-0.3 -0.04,-0.42 -0.12,-0.21 -0.44,-0.23 -0.57,0.01 -0.06,0.11 -0.03,0.28 -0.04,0.41l-0.12 -0zm-0.06 0.01c-0.11,0.06 -0.09,0.11 -0.09,0.23 -0.04,0 -0.06,-0.01 -0.06,0.03l0 0.53c0,0.03 0.02,0.03 0.06,0.03l0 0.11c0,0.06 0.07,0.13 0.13,0.13l0.93 0c0.09,0 0.11,-0.1 0.13,-0.13 0.04,0.02 0.13,0.13 0.18,0.13 0.07,0 0.23,-0.21 0.27,-0.29 0.06,-0.12 0.13,-0.31 0.1,-0.45 -0.38,-0.09 -0.26,-0.17 -0.38,-0.21 -0.06,0.04 -0.09,0.11 -0.17,0.15 0,-0.05 0,-0.12 -0.01,-0.16 -0.02,-0.06 -0.04,-0.07 -0.08,-0.1 0,-0.26 0.02,-0.38 -0.08,-0.55 -0.03,-0.05 -0.07,-0.08 -0.11,-0.12 -0.08,-0.06 -0.2,-0.12 -0.3,-0.11 -0.1,0.01 -0.18,0.03 -0.26,0.07 -0.13,0.07 -0.25,0.23 -0.26,0.39 -0,0.11 0,0.22 0,0.32z"/>
   <path class="fil1" d="M0.62 1.02c0.07,-0.03 0.11,0.02 0.12,0.09 0,0.05 -0.01,0.17 0,0.21 0.01,0.05 0.08,0.06 0.05,0.17 -0.01,0.05 -0.06,0.1 -0.11,0.11 -0.14,0.02 -0.22,-0.1 -0.15,-0.22 0.02,-0.04 0.03,-0.03 0.03,-0.09 0,-0.13 -0.03,-0.23 0.06,-0.27zm-0.5 -0.06l0 0.05c0.36,0.03 0.29,-0.16 0.29,0.53 0,0.1 -0.09,0.05 -0.29,0.06 -0.01,0.11 -0,0.17 0.11,0.17l0.82 0c0.23,0 0.08,-0.24 0.06,-0.28 -0.05,-0.1 -0.09,-0.26 -0.08,-0.39l0.14 -0.04c0,-0.13 0.03,-0.24 -0.12,-0.24l-0.81 0c-0.1,0 -0.13,0.03 -0.13,0.13z"/>
   <path class="fil1" d="M0.21 0.77l0.12 0c0.01,-0.14 -0.02,-0.3 0.04,-0.41 0.13,-0.24 0.46,-0.22 0.57,-0.01 0.06,0.12 0.04,0.28 0.04,0.42l0.12 0c0.01,-0.17 0.01,-0.37 -0.07,-0.5 -0.07,-0.11 -0.19,-0.21 -0.37,-0.21 -0.18,0 -0.31,0.11 -0.37,0.2 -0.09,0.14 -0.08,0.32 -0.07,0.5z"/>
   <path class="fil1" d="M1.51 1.17c0.02,-0.01 0,-0 0.02,-0.01 0.02,-0.01 -0.01,-0 0.02,-0.02 0.05,0.03 0.04,0.01 0.03,0.05 -0.01,0.08 0.08,0.11 0.03,0.24 -0.03,0.09 -0.15,0.17 -0.28,0.12 -0.23,-0.1 -0.13,-0.48 0.18,-0.38zm-0.41 -0.02c-0,0.25 0.14,0.46 0.31,0.61 0.04,-0.02 0.07,-0.04 0.09,-0.07 0.01,-0.01 0.02,-0.02 0.03,-0.03 0.11,-0.12 0.2,-0.33 0.2,-0.5 -0.05,-0.03 -0.13,-0.03 -0.18,-0.06 -0.05,-0.03 -0.1,-0.1 -0.14,-0.11 -0.15,0.17 -0.22,0.12 -0.31,0.18z"/>
   <path class="fil0" d="M1.54 1.28c0.1,0.14 -0.1,0.3 -0.23,0.18 -0.09,-0.08 -0.04,-0.31 0.18,-0.24 -0.01,0.05 -0.05,0.12 -0.08,0.15 -0.06,-0.05 -0.03,-0.08 -0.1,-0.05 0.01,0.04 0.07,0.12 0.1,0.14 0.07,-0.02 0.08,-0.13 0.13,-0.19zm-0.03 -0.11c-0.31,-0.1 -0.41,0.28 -0.18,0.38 0.13,0.05 0.25,-0.03 0.28,-0.12 0.05,-0.14 -0.04,-0.16 -0.03,-0.24 0.01,-0.04 0.02,-0.02 -0.03,-0.05 -0.03,0.02 -0,0 -0.02,0.02 -0.02,0.01 0.01,0 -0.02,0.01z"/>
   <path class="fil0" d="M0.66 1.07c0.04,0.07 -0,0.25 0.03,0.3 0.02,0.03 0.06,0.04 0.04,0.11 -0.01,0.04 -0.04,0.07 -0.1,0.06 -0.04,-0.01 -0.07,-0.04 -0.07,-0.09 0,-0.07 0.05,-0.05 0.06,-0.11 0.02,-0.11 -0.04,-0.27 0.04,-0.27zm-0.04 -0.05c-0.09,0.04 -0.05,0.14 -0.06,0.27 -0,0.06 -0.01,0.05 -0.03,0.09 -0.06,0.12 0.01,0.25 0.15,0.22 0.05,-0.01 0.1,-0.06 0.11,-0.11 0.02,-0.11 -0.04,-0.12 -0.05,-0.17 -0.01,-0.04 0,-0.16 -0,-0.21 -0,-0.07 -0.05,-0.12 -0.12,-0.09z"/>
   <path class="fil1" d="M1.54 1.28c-0.04,0.06 -0.06,0.17 -0.13,0.19 -0.03,-0.02 -0.09,-0.09 -0.1,-0.14 0.07,-0.03 0.04,-0.01 0.1,0.05 0.03,-0.03 0.06,-0.1 0.08,-0.15 -0.21,-0.07 -0.27,0.15 -0.18,0.24 0.13,0.11 0.32,-0.04 0.23,-0.18z"/>
   <path class="fil1" d="M0.66 1.07c-0.09,0.01 -0.02,0.16 -0.04,0.27 -0.01,0.06 -0.06,0.03 -0.06,0.11 -0,0.05 0.03,0.08 0.07,0.09 0.06,0.01 0.09,-0.02 0.1,-0.06 0.02,-0.07 -0.02,-0.08 -0.04,-0.11 -0.03,-0.05 0.01,-0.23 -0.03,-0.3z"/>
   <polygon class="fil1" points="0.06,1.18 0.1,1.18 0.12,1.18 0.37,1.18 0.35,1.18 0.35,1.07 0.06,1.07 "/>
   <polygon class="fil1" points="0.06,1.36 0.1,1.36 0.35,1.36 0.35,1.25 0.35,1.24 0.06,1.24 "/>
   <polygon class="fil1" points="0.06,1.53 0.35,1.54 0.35,1.42 0.06,1.42 "/>
  </g>
 </g>
</svg>
